<svg width="23.000000" height="18.000000" viewBox="0 0 23 18" fill="none" xmlns="http://www.w3.org/2000/svg" xmlns:xlink="http://www.w3.org/1999/xlink">
	<desc>
			Created with Pixso.
	</desc>
	<defs>
		<clipPath id="clip7_3845">
			<rect width="23.000111" height="18.000391" fill="white" fill-opacity="0"/>
		</clipPath>
	</defs>
	<rect width="23.000111" height="18.000391" fill="#FFFFFF" fill-opacity="0"/>
	<g clip-path="url(#clip7_3845)">
		<path d="M14.97 2.84C17.62 2.84 19.78 4.55 19.78 6.94C19.78 11.72 13.22 14.45 11.03 15.48C8.85 14.45 2.29 11.72 2.29 6.94C2.29 4.55 4.48 2.84 7.1 2.84C8.73 2.84 10.16 3.52 11.03 4.2C11.91 3.52 13.34 2.84 14.97 2.84ZM11.85 13.5C12.62 13.12 13.32 12.74 13.97 12.33C16.57 10.72 18.03 8.95 18.03 6.94C18.03 5.32 16.68 4.2 14.97 4.2C14.03 4.2 13.01 4.59 12.27 5.17L11.03 6.14L9.8 5.17C9.06 4.59 8.04 4.2 7.1 4.2C5.4 4.2 4.04 5.33 4.04 6.94C4.04 8.95 5.5 10.72 8.1 12.33C8.75 12.74 9.45 13.12 10.22 13.5C10.48 13.63 10.74 13.75 11.03 13.89C11.33 13.75 11.59 13.63 11.85 13.5Z" fill="#FFFFFF" fill-opacity="1.000000" fill-rule="nonzero"/>
	</g>
</svg>
