<svg width="76.453613" height="10.000000" viewBox="0 0 76.4536 10" fill="none" xmlns="http://www.w3.org/2000/svg" xmlns:xlink="http://www.w3.org/1999/xlink">
	<desc>
			Created with Pixso.
	</desc>
	<defs>
		<clipPath id="clip28_1284">
			<rect id="star (1) 1" width="10.921928" height="10.000000" fill="white" fill-opacity="0"/>
		</clipPath>
		<clipPath id="clip28_1286">
			<rect id="star (1) 2" width="10.921928" height="10.000000" transform="translate(16.382812 0.000000)" fill="white" fill-opacity="0"/>
		</clipPath>
		<clipPath id="clip28_1288">
			<rect id="star (1) 3" width="10.921928" height="10.000000" transform="translate(32.766113 0.000000)" fill="white" fill-opacity="0"/>
		</clipPath>
		<clipPath id="clip28_1290">
			<rect id="star (1) 4" width="10.921928" height="10.000000" transform="translate(49.148926 0.000000)" fill="white" fill-opacity="0"/>
		</clipPath>
		<clipPath id="clip28_1292">
			<rect id="star (1) 5" width="10.921928" height="10.000000" transform="translate(65.531738 0.000000)" fill="white" fill-opacity="0"/>
		</clipPath>
	</defs>
	<rect id="star (1) 1" width="10.921928" height="10.000000" fill="#FFFFFF" fill-opacity="0"/>
	<g clip-path="url(#clip28_1284)">
		<path id="Vector" d="M10.89 3.83C10.82 3.63 10.62 3.49 10.39 3.47L7.24 3.2L5.99 0.53C5.9 0.34 5.69 0.21 5.46 0.21C5.22 0.21 5.01 0.34 4.92 0.53L3.68 3.2L0.52 3.47C0.29 3.49 0.1 3.63 0.02 3.83C-0.05 4.03 0.02 4.26 0.19 4.4L2.58 6.31L1.87 9.14C1.82 9.35 1.91 9.57 2.1 9.69C2.2 9.76 2.32 9.79 2.44 9.79C2.54 9.79 2.65 9.77 2.74 9.72L5.46 8.23L8.17 9.72C8.37 9.83 8.62 9.82 8.81 9.69C9 9.57 9.09 9.35 9.04 9.14L8.34 6.31L10.72 4.4C10.89 4.26 10.96 4.03 10.89 3.83Z" fill="#F5C34B" fill-opacity="1.000000" fill-rule="nonzero"/>
	</g>
	<rect id="star (1) 2" width="10.921928" height="10.000000" transform="translate(16.382812 0.000000)" fill="#FFFFFF" fill-opacity="0"/>
	<g clip-path="url(#clip28_1286)">
		<path id="Vector" d="M27.27 3.83C27.2 3.63 27 3.49 26.77 3.47L23.62 3.2L22.37 0.53C22.28 0.34 22.07 0.21 21.84 0.21C21.61 0.21 21.4 0.34 21.31 0.53L20.06 3.2L16.91 3.47C16.67 3.49 16.48 3.63 16.41 3.83C16.33 4.03 16.4 4.26 16.58 4.4L18.96 6.31L18.26 9.14C18.2 9.35 18.29 9.57 18.48 9.69C18.58 9.76 18.7 9.79 18.82 9.79C18.93 9.79 19.03 9.77 19.12 9.72L21.84 8.23L24.56 9.72C24.76 9.83 25.01 9.82 25.2 9.69C25.38 9.57 25.47 9.35 25.42 9.14L24.72 6.31L27.1 4.4C27.28 4.26 27.34 4.03 27.27 3.83Z" fill="#F5C34B" fill-opacity="1.000000" fill-rule="nonzero"/>
	</g>
	<rect id="star (1) 3" width="10.921928" height="10.000000" transform="translate(32.766113 0.000000)" fill="#FFFFFF" fill-opacity="0"/>
	<g clip-path="url(#clip28_1288)">
		<path id="Vector" d="M43.65 3.83C43.58 3.63 43.39 3.49 43.15 3.47L40 3.2L38.76 0.53C38.66 0.34 38.45 0.21 38.22 0.21C37.99 0.21 37.78 0.34 37.69 0.53L36.44 3.2L33.29 3.47C33.06 3.49 32.86 3.63 32.79 3.83C32.72 4.03 32.78 4.26 32.96 4.4L35.34 6.31L34.64 9.14C34.59 9.35 34.68 9.57 34.86 9.69C34.97 9.76 35.09 9.79 35.21 9.79C35.31 9.79 35.41 9.77 35.5 9.72L38.22 8.23L40.94 9.72C41.14 9.83 41.39 9.82 41.58 9.69C41.77 9.57 41.86 9.35 41.8 9.14L41.1 6.31L43.48 4.4C43.66 4.26 43.73 4.03 43.65 3.83Z" fill="#F5C34B" fill-opacity="1.000000" fill-rule="nonzero"/>
	</g>
	<rect id="star (1) 4" width="10.921928" height="10.000000" transform="translate(49.148926 0.000000)" fill="#FFFFFF" fill-opacity="0"/>
	<g clip-path="url(#clip28_1290)">
		<path id="Vector" d="M60.04 3.83C59.97 3.63 59.77 3.49 59.54 3.47L56.39 3.2L55.14 0.53C55.05 0.34 54.84 0.21 54.6 0.21C54.37 0.21 54.16 0.34 54.07 0.53L52.83 3.2L49.67 3.47C49.44 3.49 49.25 3.63 49.17 3.83C49.1 4.03 49.17 4.26 49.34 4.4L51.73 6.31L51.02 9.14C50.97 9.35 51.06 9.57 51.25 9.69C51.35 9.76 51.47 9.79 51.59 9.79C51.69 9.79 51.79 9.77 51.89 9.72L54.6 8.23L57.32 9.72C57.52 9.83 57.77 9.82 57.96 9.69C58.15 9.57 58.24 9.35 58.19 9.14L57.48 6.31L59.87 4.4C60.04 4.26 60.11 4.03 60.04 3.83Z" fill="#F5C34B" fill-opacity="1.000000" fill-rule="nonzero"/>
	</g>
	<rect id="star (1) 5" width="10.921928" height="10.000000" transform="translate(65.531738 0.000000)" fill="#FFFFFF" fill-opacity="0"/>
	<g clip-path="url(#clip28_1292)">
		<path id="Vector" d="M76.42 3.83C76.35 3.63 76.15 3.49 75.92 3.47L72.77 3.2L71.52 0.53C71.43 0.34 71.22 0.21 70.99 0.21C70.75 0.21 70.55 0.34 70.45 0.53L69.21 3.2L66.05 3.47C65.82 3.49 65.63 3.63 65.56 3.83C65.48 4.03 65.55 4.26 65.72 4.4L68.11 6.31L67.41 9.14C67.35 9.35 67.44 9.57 67.63 9.69C67.73 9.76 67.85 9.79 67.97 9.79C68.07 9.79 68.18 9.77 68.27 9.72L70.99 8.23L73.71 9.72C73.91 9.83 74.16 9.82 74.34 9.69C74.53 9.57 74.62 9.35 74.57 9.14L73.87 6.31L76.25 4.4C76.43 4.26 76.49 4.03 76.42 3.83Z" fill="#F5C34B" fill-opacity="1.000000" fill-rule="nonzero"/>
	</g>
</svg>
