<svg width="21.026855" height="18.000000" viewBox="0 0 21.0269 18" fill="none" xmlns="http://www.w3.org/2000/svg" xmlns:xlink="http://www.w3.org/1999/xlink">
	<desc>
			Created with Pixso.
	</desc>
	<defs>
		<clipPath id="clip7_3829">
			<rect width="21.026941" height="18.000000" fill="white" fill-opacity="0"/>
		</clipPath>
	</defs>
	<rect width="21.026941" height="18.000000" fill="#FFFFFF" fill-opacity="0"/>
	<g clip-path="url(#clip7_3829)">
		<path d="M15.77 15.75C15.77 14.92 16.55 14.25 17.52 14.25C18.49 14.25 19.27 14.92 19.27 15.75C19.27 16.57 18.49 17.25 17.52 17.25C16.55 17.25 15.77 16.57 15.77 15.75Z" fill="#FFFFFF" fill-opacity="1.000000" fill-rule="evenodd"/>
		<path d="M6.13 15.75C6.13 14.92 6.91 14.25 7.88 14.25C8.85 14.25 9.63 14.92 9.63 15.75C9.63 16.57 8.85 17.25 7.88 17.25C6.91 17.25 6.13 16.57 6.13 15.75Z" fill="#FFFFFF" fill-opacity="1.000000" fill-rule="evenodd"/>
		<path d="M0 0.75C0 0.33 0.39 0 0.87 0L4.38 0C4.79 0 5.15 0.25 5.23 0.6L5.97 3.75L20.15 3.75C20.41 3.75 20.65 3.84 20.82 4.02C20.99 4.19 21.06 4.42 21.01 4.64L19.6 10.93C19.48 11.45 19.15 11.92 18.67 12.25C18.2 12.58 17.6 12.75 16.98 12.75L8.48 12.75C7.87 12.75 7.27 12.58 6.79 12.25C6.31 11.92 5.98 11.45 5.86 10.93L4.4 4.67C4.39 4.65 4.39 4.63 4.39 4.61L3.66 1.5L0.87 1.5C0.39 1.5 0 1.16 0 0.75L0 0.75ZM6.32 5.25L7.58 10.64C7.62 10.81 7.73 10.97 7.89 11.08C8.05 11.19 8.25 11.25 8.46 11.25L8.48 11.25L16.99 11.25L17.01 11.25C17.21 11.25 17.41 11.19 17.57 11.08C17.73 10.97 17.84 10.82 17.88 10.64L19.09 5.25L6.32 5.25Z" fill="#FFFFFF" fill-opacity="1.000000" fill-rule="evenodd"/>
	</g>
</svg>
