<svg width="21.838867" height="18.804688" viewBox="0 0 21.8389 18.8047" fill="none" xmlns="http://www.w3.org/2000/svg" xmlns:xlink="http://www.w3.org/1999/xlink">
	<desc>
			Created with Pixso.
	</desc>
	<defs>
		<clipPath id="clip7_3840">
			<rect width="21.158077" height="18.000000" transform="translate(0.000000 0.818359) rotate(-2.217432)" fill="white" fill-opacity="0"/>
		</clipPath>
	</defs>
	<rect width="21.158077" height="18.000000" transform="translate(0.000000 0.818359) rotate(-2.217432)" fill="#FFFFFF" fill-opacity="0"/>
	<g clip-path="url(#clip7_3840)">
		<path d="M10.89 8.65C11.76 8.61 12.6 8.36 13.31 7.92C14.02 7.48 14.56 6.87 14.86 6.18C15.17 5.48 15.23 4.72 15.03 4C14.83 3.28 14.39 2.63 13.75 2.13C13.12 1.63 12.32 1.3 11.46 1.19C10.6 1.08 9.71 1.19 8.92 1.5C8.13 1.82 7.46 2.33 7 2.96C6.54 3.6 6.31 4.33 6.34 5.07C6.37 6.07 6.88 7 7.73 7.67C8.58 8.34 9.72 8.69 10.89 8.65ZM10.65 2.65C11.18 2.63 11.69 2.75 12.14 2.97C12.58 3.2 12.93 3.54 13.15 3.95C13.36 4.35 13.43 4.8 13.35 5.24C13.26 5.68 13.03 6.09 12.67 6.42C12.31 6.75 11.85 6.98 11.34 7.09C10.83 7.19 10.3 7.17 9.81 7.02C9.32 6.87 8.9 6.59 8.59 6.24C8.29 5.88 8.11 5.45 8.1 5C8.07 4.41 8.33 3.82 8.81 3.38C9.29 2.94 9.95 2.68 10.65 2.65ZM3.28 17.2L3.16 14.2C3.12 13.21 3.55 12.24 4.35 11.5C5.15 10.77 6.25 10.33 7.42 10.28L14.47 10.01C15.63 9.97 16.77 10.32 17.62 10.99C18.48 11.66 18.98 12.59 19.02 13.59L19.13 16.58C19.14 16.78 19.05 16.98 18.89 17.12C18.74 17.27 18.51 17.36 18.28 17.37C18.05 17.38 17.82 17.31 17.65 17.17C17.48 17.04 17.38 16.85 17.37 16.65L17.25 13.66C17.23 13.06 16.93 12.5 16.42 12.1C15.91 11.69 14.52 11.51 14.52 11.51L7.48 11.78C6.78 11.81 6.11 12.07 5.63 12.51C5.15 12.95 4.9 13.54 4.92 14.13L5.04 17.13C5.05 17.33 4.96 17.52 4.8 17.67C4.64 17.82 4.42 17.91 4.19 17.91C3.95 17.92 3.72 17.85 3.55 17.72C3.38 17.58 3.28 17.4 3.28 17.2Z" fill="#FFFFFF" fill-opacity="1.000000" fill-rule="nonzero"/>
	</g>
</svg>
